<svg width="32" height="32" viewBox="0 0 32 32" fill="none" xmlns="http://www.w3.org/2000/svg">
<rect width="32" height="32" rx="4" fill="#F2F2F2"/>
<ellipse cx="16" cy="11" rx="6" ry="2" fill="#666666"/>
<path d="M10 15.4561V13.0546C11.3032 13.9715 14.3982 14.2736 15.7828 14.3099C18.5412 14.4846 21.0769 13.5094 22 13L21.9729 15.7836C21.7557 16.4604 21.0498 16.7355 20.7511 16.8752C19.4914 17.4647 17.2036 17.6485 16.2172 17.6667C12.6552 17.6448 10.7873 16.7297 10.2986 16.2749C10.0814 16.1439 10.009 15.6745 10 15.4561Z" fill="#666666"/>
<path d="M10 20.1228V17.7212C11.3032 18.6382 14.3982 18.9402 15.7828 18.9766C18.5412 19.1512 21.0769 18.176 22 17.6666L21.9729 20.4503C21.7557 21.1271 21.0498 21.4021 20.7511 21.5419C19.4914 22.1313 17.2036 22.3151 16.2172 22.3333C12.6552 22.3115 10.7873 21.3963 10.2986 20.9415C10.0814 20.8105 10.009 20.3411 10 20.1228Z" fill="#666666"/>
</svg>
