<svg width="24" height="24" viewBox="0 0 24 24" fill="none" xmlns="http://www.w3.org/2000/svg">
<ellipse cx="12" cy="5" rx="9" ry="3" fill="#666566"/>
<path d="M3 11.6842V8.08187C4.95475 9.45731 9.59729 9.91033 11.6742 9.96491C15.8118 10.2269 19.6154 8.76413 21 8L20.9593 12.1754C20.6335 13.1906 19.5747 13.6032 19.1267 13.8129C17.2371 14.6971 13.8054 14.9727 12.3258 15C6.98281 14.9673 4.181 13.5945 3.44796 12.9123C3.12217 12.7158 3.01357 12.0117 3 11.6842Z" fill="#666566"/>
<path d="M3 18.6842V15.0819C4.95475 16.4573 9.59729 16.9103 11.6742 16.9649C15.8118 17.2269 19.6154 15.7641 21 15L20.9593 19.1754C20.6335 20.1906 19.5747 20.6032 19.1267 20.8129C17.2371 21.6971 13.8054 21.9727 12.3258 22C6.98281 21.9673 4.181 20.5945 3.44796 19.9123C3.12217 19.7158 3.01357 19.0117 3 18.6842Z" fill="#666566"/>
</svg>
