<svg width="16" height="16" viewBox="0 0 16 16" fill="none" xmlns="http://www.w3.org/2000/svg">
<rect x="1.3335" y="1.33331" width="2.66667" height="13.3333" fill="#666566"/>
<path d="M6.66699 1.33331H9.33366V5.99998L6.66699 8.66665V1.33331Z" fill="#666566"/>
<path d="M9.3335 14.6667H6.66683V14L9.3335 11.3334V14.6667Z" fill="#666566"/>
<path fill-rule="evenodd" clip-rule="evenodd" d="M14.667 1.33331H12.1592V2.8808L13.3336 2L14.667 3.71439V1.33331ZM14.667 5.99992L12.1592 8.50773V14.6666H14.667V5.99992Z" fill="#666566"/>
<path d="M11.2167 5.24186L12.6481 6.63866L7.06087 12.3643L5.62947 10.9675L11.2167 5.24186Z" fill="#666566"/>
<path d="M6.59527 12.8414L5.16386 11.4446L4.71556 13.3359L6.59527 12.8414Z" fill="#666566"/>
<path d="M11.6823 4.76472L13.1137 6.16153L14.5105 4.73012L13.0791 3.33331L11.6823 4.76472Z" fill="#666566"/>
</svg>
