<svg width="87" height="122" viewBox="0 0 87 122" fill="none" xmlns="http://www.w3.org/2000/svg">
<path fill-rule="evenodd" clip-rule="evenodd" d="M60.7143 0H4C1.79086 0 0 1.79086 0 4V118C0 120.209 1.79086 122 4 122H82C84.2091 122 86 120.209 86 118V29.5L60.7143 0Z" fill="#E2E2E2"/>
<path d="M61 26V0L86.5 30H65C62.7909 30 61 28.2091 61 26Z" fill="#F0F0F0"/>
<ellipse cx="43.85" cy="51.95" rx="14.85" ry="4.95" fill="#B2B2B2"/>
<path d="M29 62.979V57.0351C32.2253 59.3046 39.8855 60.0521 43.3124 60.1421C50.1394 60.5744 56.4154 58.1608 58.7 56.9L58.6328 63.7895C58.0953 65.4646 56.3482 66.1454 55.6091 66.4913C52.4912 67.9502 46.829 68.405 44.3876 68.45C35.5716 68.396 30.9486 66.131 29.7391 65.0053C29.2016 64.6811 29.0224 63.5193 29 62.979Z" fill="#B2B2B2"/>
<path d="M29 74.5289V68.585C32.2253 70.8545 39.8855 71.602 43.3124 71.6921C50.1394 72.1243 56.4154 69.7108 58.7 68.45L58.6328 75.3394C58.0953 77.0145 56.3482 77.6953 55.6091 78.0412C52.4912 79.5001 46.829 79.9549 44.3876 80C35.5716 79.9459 30.9486 77.6809 29.7391 76.5552C29.2016 76.231 29.0224 75.0693 29 74.5289Z" fill="#B2B2B2"/>
</svg>
