<svg width="14" height="14" viewBox="0 0 14 14" fill="none" xmlns="http://www.w3.org/2000/svg">
<path d="M4.10471 8.48175C4.37238 8.16564 4.33311 7.69239 4.017 7.42473C3.70089 7.15706 3.22765 7.19633 2.95998 7.51244L4.10471 8.48175ZM7.30503 8.57096L4.72019 11.6236L5.86493 12.5929L8.44977 9.54028L7.30503 8.57096ZM2.81229 10.0081L4.10471 8.48175L2.95998 7.51244L1.66755 9.03876L2.81229 10.0081ZM2.95848 11.7698C2.43163 11.3237 2.36618 10.5349 2.81229 10.0081L1.66755 9.03876C0.686101 10.1978 0.83009 11.9331 1.98916 12.9145L2.95848 11.7698ZM4.72019 11.6236C4.27408 12.1504 3.48533 12.2159 2.95848 11.7698L1.98916 12.9145C3.14824 13.896 4.88348 13.752 5.86493 12.5929L4.72019 11.6236ZM8.44977 9.54028C9.43123 8.3812 9.28724 6.64596 8.12816 5.66451L7.15885 6.80925C7.6857 7.25536 7.75115 8.04411 7.30503 8.57096L8.44977 9.54028Z" fill="#216BFF"/>
<path d="M9.89138 5.51825C9.62371 5.83436 9.66298 6.30761 9.97909 6.57527C10.2952 6.84294 10.7684 6.80367 11.0361 6.48756L9.89138 5.51825ZM6.69106 5.42904L9.2759 2.3764L8.13116 1.40709L5.54632 4.45972L6.69106 5.42904ZM11.1838 3.99193L9.89138 5.51825L11.0361 6.48756L12.3285 4.96124L11.1838 3.99193ZM11.0376 2.23022C11.5645 2.67633 11.6299 3.46508 11.1838 3.99193L12.3285 4.96124C13.31 3.80217 13.166 2.06693 12.0069 1.08548L11.0376 2.23022ZM9.2759 2.3764C9.72202 1.84955 10.5108 1.7841 11.0376 2.23022L12.0069 1.08548C10.8479 0.104025 9.11262 0.248014 8.13116 1.40709L9.2759 2.3764ZM5.54632 4.45972C4.56487 5.6188 4.70886 7.35404 5.86793 8.33549L6.83725 7.19075C6.31039 6.74464 6.24494 5.95589 6.69106 5.42904L5.54632 4.45972Z" fill="#216BFF"/>
</svg>
