<svg width="24" height="24" viewBox="0 0 24 24" fill="none" xmlns="http://www.w3.org/2000/svg">
<path d="M8.07381 3.43779V14.2367L5.37102 10.3436C4.77141 9.80599 3.98556 10.1196 3.66758 10.3436C2.75908 10.9369 2.97107 11.9503 3.19062 12.3829L8.7779 20.7254C9.25032 21.6339 10.5343 21.9537 11.1173 22H16.3412C19.3756 21.6478 20.0433 19.0106 19.9979 17.736V9.76428C19.9979 8.85587 19.1348 8.56697 18.7033 8.53607C17.7766 8.44338 17.2118 8.91458 17.0453 9.16176V9.02272C16.9907 8.15139 16.1897 7.80996 15.7961 7.74817C14.4333 7.67401 13.9715 8.41248 13.9109 8.79098C13.8019 7.78988 13.0327 7.5705 12.6617 7.58595C11.626 7.47472 11.0946 8.04943 10.9583 8.35068V3.18295C10.9583 2.29308 10.0649 2.02422 9.61826 2.00102C8.3827 1.96395 8.07381 2.94342 8.07381 3.43779Z" fill="white"/>
<path d="M10.9583 11.2474V8.35068M10.9583 8.35068V3.18295C10.9583 2.29308 10.0649 2.02422 9.61826 2.00102C8.3827 1.96395 8.07381 2.94342 8.07381 3.43779V14.2367L5.37102 10.3436C4.77141 9.80599 3.98556 10.1196 3.66758 10.3436C2.75908 10.9369 2.97107 11.9503 3.19062 12.3829L8.7779 20.7254C9.25032 21.6339 10.5343 21.9537 11.1173 22H16.3412C19.3756 21.6478 20.0433 19.0106 19.9979 17.736V9.76428C19.9979 8.85587 19.1348 8.56697 18.7033 8.53607C17.7766 8.44338 17.2118 8.91458 17.0453 9.16176M10.9583 8.35068C11.0946 8.04942 11.626 7.47472 12.6617 7.58595C13.0327 7.5705 13.8019 7.78988 13.9109 8.79098M13.9109 8.79098V11.2474M13.9109 8.79098C13.9715 8.41248 14.4333 7.67401 15.7961 7.74817C16.1897 7.80996 16.9907 8.15139 17.0453 9.02272V9.16176M17.0453 11.2474V9.16176" stroke="#666666" stroke-linecap="round"/>
</svg>
