<svg width="24" height="24" viewBox="0 0 24 24" fill="none" xmlns="http://www.w3.org/2000/svg">
<rect x="2.5" y="2.5" width="19" height="19" rx="1.5" stroke="#666666"/>
<path d="M13 3V21" stroke="#666666" stroke-linecap="round"/>
<path d="M9.33914 9.3674C9.54205 9.1801 9.5547 8.86377 9.3674 8.66086C9.1801 8.45795 8.86377 8.4453 8.66086 8.6326L9.33914 9.3674ZM6 11.7692L5.66086 11.4018C5.56323 11.4919 5.50548 11.6172 5.50037 11.75C5.49526 11.8828 5.5432 12.0121 5.6336 12.1095L6 11.7692ZM8.6336 15.3402C8.8215 15.5426 9.13787 15.5543 9.34023 15.3664C9.54258 15.1785 9.5543 14.8621 9.3664 14.6598L8.6336 15.3402ZM8.66086 8.6326L5.66086 11.4018L6.33914 12.1366L9.33914 9.3674L8.66086 8.6326ZM5.6336 12.1095L8.6336 15.3402L9.3664 14.6598L6.3664 11.429L5.6336 12.1095Z" fill="#666666"/>
</svg>
