<svg width="24" height="24" viewBox="0 0 24 24" fill="none" xmlns="http://www.w3.org/2000/svg">
<rect width="0.849056" height="3.39622" transform="matrix(-0.681885 0.73146 0.73146 0.681885 11.0469 10.5316)" fill="#666666"/>
<rect width="0.849056" height="3.39622" transform="matrix(-0.73146 -0.681885 -0.681885 0.73146 13.4683 11.0475)" fill="#666666"/>
<path fill-rule="evenodd" clip-rule="evenodd" d="M11.8314 7.19999L15.337 10.4679C16.1449 11.2211 16.1893 12.4867 15.4361 13.2946L12.1681 16.8002L8.66263 13.5322C7.85468 12.779 7.81029 11.5135 8.56348 10.7055L11.8314 7.19999Z" fill="#666566"/>
<path d="M11.8314 7.19999L12.1724 6.83426L11.8066 6.49331L11.4657 6.85904L11.8314 7.19999ZM12.1681 16.8002L11.8272 17.1659L12.1929 17.5068L12.5339 17.1411L12.1681 16.8002ZM11.4905 7.56572L14.996 10.8336L15.6779 10.1022L12.1724 6.83426L11.4905 7.56572ZM14.996 10.8336C15.602 11.3985 15.6353 12.3477 15.0704 12.9537L15.8018 13.6356C16.7433 12.6256 16.6878 11.0437 15.6779 10.1022L14.996 10.8336ZM15.0704 12.9537L11.8024 16.4592L12.5339 17.1411L15.8018 13.6356L15.0704 12.9537ZM12.5091 16.4344L9.00357 13.1665L8.32168 13.898L11.8272 17.1659L12.5091 16.4344ZM9.00357 13.1665C8.39761 12.6016 8.36431 11.6524 8.92921 11.0465L8.19775 10.3646C7.25626 11.3745 7.31175 12.9565 8.32168 13.898L9.00357 13.1665ZM8.92921 11.0465L12.1972 7.54093L11.4657 6.85904L8.19775 10.3646L8.92921 11.0465Z" fill="#CCCCCC"/>
<path fill-rule="evenodd" clip-rule="evenodd" d="M1.36377 10.9581C0.61058 11.766 0.654972 13.0316 1.46292 13.7848L7.23179 19.1627C8.03973 19.9159 9.30529 19.8715 10.0585 19.0635L12.1684 16.8002L14.4317 18.9101C15.2397 19.6633 16.5052 19.6189 17.2584 18.811L22.6363 13.0421C23.3895 12.2342 23.3451 10.9686 22.5372 10.2154L16.7683 4.83756C15.9603 4.08437 14.6948 4.12877 13.9416 4.93671L11.8317 7.20003L9.56834 5.09008C8.76039 4.3369 7.49483 4.38129 6.74165 5.18924L1.36377 10.9581ZM11.8317 7.20003L8.56372 10.7056C7.81053 11.5135 7.85492 12.7791 8.66287 13.5323L12.1684 16.8002L15.4364 13.2947C16.1895 12.4867 16.1451 11.2212 15.3372 10.468L11.8317 7.20003Z" fill="#666666"/>
<path d="M1.46292 13.7848L1.12198 14.1505L1.46292 13.7848ZM1.36377 10.9581L1.7295 11.299L1.36377 10.9581ZM7.23179 19.1627L7.57273 18.7969L7.23179 19.1627ZM14.4317 18.9101L14.0908 19.2759L14.4317 18.9101ZM17.2584 18.811L17.6242 19.1519L17.2584 18.811ZM22.6363 13.0421L22.2706 12.7012L22.6363 13.0421ZM9.56834 5.09008L9.90928 4.72435L9.56834 5.09008ZM6.74165 5.18924L6.37592 4.84829L6.74165 5.18924ZM15.3372 10.468L14.9963 10.8337L15.3372 10.468ZM1.80386 13.4191C1.1979 12.8542 1.16461 11.905 1.7295 11.299L0.998039 10.6172C0.056553 11.6271 0.112043 13.209 1.12198 14.1505L1.80386 13.4191ZM7.57273 18.7969L1.80386 13.4191L1.12198 14.1505L6.89084 19.5284L7.57273 18.7969ZM9.69274 18.7226C9.12785 19.3285 8.17869 19.3618 7.57273 18.7969L6.89084 19.5284C7.90078 20.4699 9.48272 20.4144 10.4242 19.4045L9.69274 18.7226ZM11.8027 16.4593L9.69274 18.7226L10.4242 19.4045L12.5341 17.1411L11.8027 16.4593ZM14.7727 18.5444L12.5093 16.4345L11.8274 17.1659L14.0908 19.2759L14.7727 18.5444ZM16.8927 18.4701C16.3278 19.076 15.3786 19.1093 14.7727 18.5444L14.0908 19.2759C15.1007 20.2174 16.6827 20.1619 17.6242 19.1519L16.8927 18.4701ZM22.2706 12.7012L16.8927 18.4701L17.6242 19.1519L23.002 13.3831L22.2706 12.7012ZM22.1962 10.5812C22.8022 11.1461 22.8355 12.0952 22.2706 12.7012L23.002 13.3831C23.9435 12.3731 23.888 10.7912 22.8781 9.84971L22.1962 10.5812ZM16.4273 5.20329L22.1962 10.5812L22.8781 9.84971L17.1092 4.47183L16.4273 5.20329ZM14.3073 5.27766C14.8722 4.6717 15.8214 4.6384 16.4273 5.20329L17.1092 4.47183C16.0993 3.53035 14.5174 3.58584 13.5759 4.59577L14.3073 5.27766ZM12.1974 7.54097L14.3073 5.27766L13.5759 4.59577L11.4659 6.85909L12.1974 7.54097ZM9.22739 5.45581L11.4907 7.56576L12.1726 6.8343L9.90928 4.72435L9.22739 5.45581ZM7.10738 5.53018C7.67227 4.92422 8.62143 4.89092 9.22739 5.45581L9.90928 4.72435C8.89934 3.78287 7.3174 3.83836 6.37592 4.84829L7.10738 5.53018ZM1.7295 11.299L7.10738 5.53018L6.37592 4.84829L0.998039 10.6172L1.7295 11.299ZM8.92945 11.0465L12.1974 7.54097L11.4659 6.85909L8.19799 10.3646L8.92945 11.0465ZM9.00381 13.1665C8.39785 12.6016 8.36456 11.6525 8.92945 11.0465L8.19799 10.3646C7.2565 11.3746 7.31199 12.9565 8.32193 13.898L9.00381 13.1665ZM12.5093 16.4345L9.00381 13.1665L8.32193 13.898L11.8274 17.1659L12.5093 16.4345ZM15.0706 12.9537L11.8027 16.4593L12.5341 17.1411L15.8021 13.6356L15.0706 12.9537ZM14.9963 10.8337C15.6022 11.3986 15.6355 12.3477 15.0706 12.9537L15.8021 13.6356C16.7436 12.6257 16.6881 11.0437 15.6781 10.1022L14.9963 10.8337ZM11.4907 7.56576L14.9963 10.8337L15.6781 10.1022L12.1726 6.8343L11.4907 7.56576Z" fill="#F2F2F2"/>
</svg>
