<svg width="24" height="24" viewBox="0 0 24 24" fill="none" xmlns="http://www.w3.org/2000/svg">
<path fill-rule="evenodd" clip-rule="evenodd" d="M4 2C2.89543 2 2 2.89543 2 4V14C2 15.1046 2.89543 16 4 16H8V20C8 21.1046 8.89543 22 10 22H20C21.1046 22 22 21.1046 22 20V10C22 8.89543 21.1046 8 20 8H16V4C16 2.89543 15.1046 2 14 2H4ZM16 8H10C8.89543 8 8 8.89543 8 10V16H14C15.1046 16 16 15.1046 16 14V8Z" fill="#666566"/>
<rect width="1" height="4" transform="matrix(-1 0 0 1 12.5 10)" fill="#666666"/>
<rect width="1" height="4" transform="matrix(0 -1 -1 0 14 12.5)" fill="#666666"/>
</svg>
