<svg width="24" height="24" viewBox="0 0 24 24" fill="none" xmlns="http://www.w3.org/2000/svg">
<rect x="12.9531" y="10.5316" width="0.849056" height="3.39622" transform="rotate(47.0089 12.9531 10.5316)" fill="#666666"/>
<rect x="10.5317" y="11.0475" width="0.849056" height="3.39622" transform="rotate(-42.9911 10.5317 11.0475)" fill="#666666"/>
<path d="M13.9415 19.0635L13.5758 19.4045L13.9415 19.0635ZM9.56827 18.9101L9.90921 19.2759L9.56827 18.9101ZM1.46285 10.2154L1.80379 10.5812L1.46285 10.2154ZM7.23172 4.83756L6.89077 4.47183L7.23172 4.83756ZM14.4317 5.09008L14.7726 5.45581L14.4317 5.09008ZM15.3371 13.5323L15.6781 13.898L15.3371 13.5323ZM8.6628 10.468L9.00374 10.8337L8.6628 10.468ZM22.1961 13.4191C22.8021 12.8542 22.8354 11.905 22.2705 11.299L23.002 10.6172C23.9434 11.6271 23.888 13.209 22.878 14.1505L22.1961 13.4191ZM16.4273 18.7969L22.1961 13.4191L22.878 14.1505L17.1092 19.5284L16.4273 18.7969ZM14.3073 18.7226C14.8721 19.3285 15.8213 19.3618 16.4273 18.7969L17.1092 19.5284C16.0992 20.4699 14.5173 20.4144 13.5758 19.4045L14.3073 18.7226ZM12.1973 16.4593L14.3073 18.7226L13.5758 19.4045L11.4659 17.1411L12.1973 16.4593ZM9.22732 18.5444L11.4907 16.4345L12.1726 17.1659L9.90921 19.2759L9.22732 18.5444ZM7.10731 18.4701C7.6722 19.076 8.62136 19.1093 9.22732 18.5444L9.90921 19.2759C8.89927 20.2174 7.31733 20.1619 6.37585 19.1519L7.10731 18.4701ZM1.72943 12.7012L7.10731 18.4701L6.37585 19.1519L0.99797 13.3831L1.72943 12.7012ZM1.80379 10.5812C1.19783 11.1461 1.16454 12.0952 1.72943 12.7012L0.99797 13.3831C0.0564832 12.3731 0.111972 10.7912 1.12191 9.84971L1.80379 10.5812ZM7.57266 5.20329L1.80379 10.5812L1.12191 9.84971L6.89077 4.47183L7.57266 5.20329ZM9.69267 5.27766C9.12778 4.6717 8.17862 4.6384 7.57266 5.20329L6.89077 4.47183C7.90071 3.53035 9.48265 3.58584 10.4241 4.59577L9.69267 5.27766ZM11.8026 7.54097L9.69267 5.27766L10.4241 4.59577L12.5341 6.85909L11.8026 7.54097ZM14.7726 5.45581L12.5093 7.56576L11.8274 6.8343L14.0907 4.72435L14.7726 5.45581ZM16.8926 5.53018C16.3277 4.92422 15.3786 4.89092 14.7726 5.45581L14.0907 4.72435C15.1007 3.78287 16.6826 3.83836 17.6241 4.84829L16.8926 5.53018ZM22.2705 11.299L16.8926 5.53018L17.6241 4.84829L23.002 10.6172L22.2705 11.299ZM15.0706 11.0465L11.8026 7.54097L12.5341 6.85909L15.802 10.3646L15.0706 11.0465ZM14.9962 13.1665C15.6021 12.6016 15.6354 11.6525 15.0706 11.0465L15.802 10.3646C16.7435 11.3746 16.688 12.9565 15.6781 13.898L14.9962 13.1665ZM11.4907 16.4345L14.9962 13.1665L15.6781 13.898L12.1726 17.1659L11.4907 16.4345ZM8.92938 12.9537L12.1973 16.4593L11.4659 17.1411L8.19792 13.6356L8.92938 12.9537ZM9.00374 10.8337C8.39778 11.3986 8.36449 12.3477 8.92938 12.9537L8.19792 13.6356C7.25643 12.6257 7.31192 11.0437 8.32186 10.1022L9.00374 10.8337ZM12.5093 7.56576L9.00374 10.8337L8.32186 10.1022L11.8274 6.8343L12.5093 7.56576Z" fill="#666666"/>
<rect width="11.8868" height="11.8868" rx="2" transform="matrix(-0.681885 -0.73146 -0.73146 0.681885 24 12.421)" fill="#666666"/>
<path d="M11.9115 6.92427L15.4365 10.7055C16.1897 11.5135 16.1453 12.779 15.3374 13.5322L11.3794 17.2219" stroke="white"/>
</svg>
